<mxfile host="app.diagrams.net" modified="2021-05-28T06:31:12.128Z" agent="5.0 (Windows NT 10.0; Win64; x64) AppleWebKit/537.36 (KHTML, like Gecko) Chrome/90.0.4430.212 Safari/537.36" etag="ODjyEUOxsl4dOxCM32oU" version="14.7.0" type="github">
  <diagram id="MGNypIJB5H5dZch-SJ4T" name="Page-1">
    <mxGraphModel dx="1422" dy="1931" grid="1" gridSize="10" guides="1" tooltips="1" connect="1" arrows="1" fold="1" page="1" pageScale="1" pageWidth="827" pageHeight="1169" math="0" shadow="0">
      <root>
        <mxCell id="0" />
        <mxCell id="1" parent="0" />
        <mxCell id="xnaSK2mseFq4dKcTBow4-52" value="安全大脑&lt;br&gt;运营中心" style="rounded=0;whiteSpace=wrap;html=1;fontSize=14;align=left;fontStyle=1;fillColor=#dae8fc;strokeColor=#6c8ebf;" parent="1" vertex="1">
          <mxGeometry x="30" y="-910" width="770" height="160" as="geometry" />
        </mxCell>
        <mxCell id="xnaSK2mseFq4dKcTBow4-78" value="预测" style="rounded=0;whiteSpace=wrap;html=1;shadow=0;sketch=0;fontSize=14;align=center;verticalAlign=top;fillColor=#f5f5f5;strokeColor=#666666;fontColor=#333333;fontStyle=1" parent="1" vertex="1">
          <mxGeometry x="100" y="-902.5" width="120" height="150" as="geometry" />
        </mxCell>
        <mxCell id="xnaSK2mseFq4dKcTBow4-2" value="数据安全" style="rounded=0;whiteSpace=wrap;html=1;align=left;fontStyle=1;fontSize=14;fillColor=#fff2cc;strokeColor=#d6b656;" parent="1" vertex="1">
          <mxGeometry x="30" y="-520" width="440" height="90" as="geometry" />
        </mxCell>
        <mxCell id="xnaSK2mseFq4dKcTBow4-3" value="基础设&lt;br&gt;施安全" style="rounded=0;whiteSpace=wrap;html=1;align=left;fontStyle=1;fontSize=14;fillColor=#f5f5f5;strokeColor=#666666;fontColor=#333333;" parent="1" vertex="1">
          <mxGeometry x="30" y="-420" width="770" height="50" as="geometry" />
        </mxCell>
        <mxCell id="xnaSK2mseFq4dKcTBow4-4" value="DLP" style="rounded=1;whiteSpace=wrap;html=1;align=center;" parent="1" vertex="1">
          <mxGeometry x="110" y="-510" width="100" height="30" as="geometry" />
        </mxCell>
        <mxCell id="xnaSK2mseFq4dKcTBow4-5" value="数据加解密" style="rounded=1;whiteSpace=wrap;html=1;align=center;" parent="1" vertex="1">
          <mxGeometry x="110" y="-470" width="100" height="30" as="geometry" />
        </mxCell>
        <mxCell id="xnaSK2mseFq4dKcTBow4-6" value="身份与访&lt;br style=&quot;font-size: 14px;&quot;&gt;问管理" style="rounded=0;whiteSpace=wrap;html=1;align=left;fillColor=#fff2cc;strokeColor=#d6b656;sketch=0;shadow=0;fontSize=14;fontStyle=1" parent="1" vertex="1">
          <mxGeometry x="480" y="-520" width="320" height="90" as="geometry" />
        </mxCell>
        <mxCell id="xnaSK2mseFq4dKcTBow4-7" value="VPN" style="rounded=1;whiteSpace=wrap;html=1;align=center;" parent="1" vertex="1">
          <mxGeometry x="540" y="-510" width="70" height="30" as="geometry" />
        </mxCell>
        <mxCell id="xnaSK2mseFq4dKcTBow4-9" value="签名验签" style="rounded=1;whiteSpace=wrap;html=1;align=center;" parent="1" vertex="1">
          <mxGeometry x="220" y="-510" width="100" height="30" as="geometry" />
        </mxCell>
        <mxCell id="xnaSK2mseFq4dKcTBow4-10" value="密钥管理" style="rounded=1;whiteSpace=wrap;html=1;align=center;" parent="1" vertex="1">
          <mxGeometry x="220" y="-470" width="100" height="30" as="geometry" />
        </mxCell>
        <mxCell id="xnaSK2mseFq4dKcTBow4-11" value="加密机" style="rounded=1;whiteSpace=wrap;html=1;align=center;" parent="1" vertex="1">
          <mxGeometry x="340" y="-510" width="100" height="30" as="geometry" />
        </mxCell>
        <mxCell id="xnaSK2mseFq4dKcTBow4-12" value="数据库审计" style="rounded=1;whiteSpace=wrap;html=1;align=center;" parent="1" vertex="1">
          <mxGeometry x="340" y="-470" width="100" height="30" as="geometry" />
        </mxCell>
        <mxCell id="xnaSK2mseFq4dKcTBow4-13" value="上网行为管理" style="rounded=1;whiteSpace=wrap;html=1;align=center;" parent="1" vertex="1">
          <mxGeometry x="630" y="-510" width="100" height="30" as="geometry" />
        </mxCell>
        <mxCell id="xnaSK2mseFq4dKcTBow4-14" value="堡垒机" style="rounded=1;whiteSpace=wrap;html=1;align=center;" parent="1" vertex="1">
          <mxGeometry x="540" y="-470" width="70" height="30" as="geometry" />
        </mxCell>
        <mxCell id="xnaSK2mseFq4dKcTBow4-16" value="4A" style="rounded=1;whiteSpace=wrap;html=1;align=center;" parent="1" vertex="1">
          <mxGeometry x="750" y="-510" width="40" height="70" as="geometry" />
        </mxCell>
        <mxCell id="xnaSK2mseFq4dKcTBow4-17" value="数字证书" style="rounded=1;whiteSpace=wrap;html=1;align=center;" parent="1" vertex="1">
          <mxGeometry x="630" y="-470" width="100" height="30" as="geometry" />
        </mxCell>
        <mxCell id="xnaSK2mseFq4dKcTBow4-18" value="防火墙" style="rounded=1;whiteSpace=wrap;html=1;align=center;" parent="1" vertex="1">
          <mxGeometry x="110" y="-410" width="100" height="30" as="geometry" />
        </mxCell>
        <mxCell id="xnaSK2mseFq4dKcTBow4-19" value="入侵检测/防御" style="rounded=1;whiteSpace=wrap;html=1;align=center;" parent="1" vertex="1">
          <mxGeometry x="240" y="-410" width="100" height="30" as="geometry" />
        </mxCell>
        <mxCell id="xnaSK2mseFq4dKcTBow4-20" value="网络准入" style="rounded=1;whiteSpace=wrap;html=1;align=center;" parent="1" vertex="1">
          <mxGeometry x="365" y="-410" width="100" height="30" as="geometry" />
        </mxCell>
        <mxCell id="xnaSK2mseFq4dKcTBow4-21" value="上网行为管理" style="rounded=1;whiteSpace=wrap;html=1;align=center;" parent="1" vertex="1">
          <mxGeometry x="500" y="-410" width="100" height="30" as="geometry" />
        </mxCell>
        <mxCell id="xnaSK2mseFq4dKcTBow4-23" value="抗Ddos" style="rounded=1;whiteSpace=wrap;html=1;align=center;" parent="1" vertex="1">
          <mxGeometry x="660" y="-410" width="100" height="30" as="geometry" />
        </mxCell>
        <mxCell id="xnaSK2mseFq4dKcTBow4-24" value="应用安全" style="rounded=0;whiteSpace=wrap;html=1;align=center;verticalAlign=top;fontStyle=1;fontSize=14;fillColor=#ffe6cc;strokeColor=#d79b00;" parent="1" vertex="1">
          <mxGeometry x="30" y="-740" width="130" height="210" as="geometry" />
        </mxCell>
        <mxCell id="xnaSK2mseFq4dKcTBow4-27" value="代码审计" style="rounded=1;whiteSpace=wrap;html=1;fontSize=14;align=center;" parent="1" vertex="1">
          <mxGeometry x="40" y="-710" width="110" height="30" as="geometry" />
        </mxCell>
        <mxCell id="xnaSK2mseFq4dKcTBow4-28" value="漏洞扫描" style="rounded=1;whiteSpace=wrap;html=1;fontSize=14;align=center;" parent="1" vertex="1">
          <mxGeometry x="40" y="-660" width="110" height="30" as="geometry" />
        </mxCell>
        <mxCell id="xnaSK2mseFq4dKcTBow4-29" value="网页防篡改" style="rounded=1;whiteSpace=wrap;html=1;fontSize=14;align=center;" parent="1" vertex="1">
          <mxGeometry x="40" y="-614.5" width="110" height="30" as="geometry" />
        </mxCell>
        <mxCell id="xnaSK2mseFq4dKcTBow4-30" value="WAF" style="rounded=1;whiteSpace=wrap;html=1;fontSize=14;align=center;" parent="1" vertex="1">
          <mxGeometry x="40" y="-570" width="110" height="30" as="geometry" />
        </mxCell>
        <mxCell id="xnaSK2mseFq4dKcTBow4-31" value="业务安全" style="rounded=0;whiteSpace=wrap;html=1;align=center;verticalAlign=top;fontStyle=1;fontSize=14;fillColor=#ffe6cc;strokeColor=#d79b00;" parent="1" vertex="1">
          <mxGeometry x="190" y="-740" width="130" height="210" as="geometry" />
        </mxCell>
        <mxCell id="xnaSK2mseFq4dKcTBow4-32" value="API网关" style="rounded=1;whiteSpace=wrap;html=1;fontSize=14;align=center;" parent="1" vertex="1">
          <mxGeometry x="200" y="-710" width="110" height="30" as="geometry" />
        </mxCell>
        <mxCell id="xnaSK2mseFq4dKcTBow4-33" value="爬取拦截" style="rounded=1;whiteSpace=wrap;html=1;fontSize=14;align=center;" parent="1" vertex="1">
          <mxGeometry x="200" y="-660" width="110" height="30" as="geometry" />
        </mxCell>
        <mxCell id="xnaSK2mseFq4dKcTBow4-34" value="人机识别" style="rounded=1;whiteSpace=wrap;html=1;fontSize=14;align=center;" parent="1" vertex="1">
          <mxGeometry x="200" y="-614" width="110" height="30" as="geometry" />
        </mxCell>
        <mxCell id="xnaSK2mseFq4dKcTBow4-35" value="账号及设备安全" style="rounded=1;whiteSpace=wrap;html=1;fontSize=14;align=center;" parent="1" vertex="1">
          <mxGeometry x="200" y="-570" width="110" height="30" as="geometry" />
        </mxCell>
        <mxCell id="xnaSK2mseFq4dKcTBow4-46" value="终端安全" style="rounded=0;whiteSpace=wrap;html=1;align=center;verticalAlign=top;fontStyle=1;fontSize=14;fillColor=#ffe6cc;strokeColor=#d79b00;" parent="1" vertex="1">
          <mxGeometry x="670" y="-740" width="130" height="210" as="geometry" />
        </mxCell>
        <mxCell id="xnaSK2mseFq4dKcTBow4-47" value="防病毒" style="rounded=1;whiteSpace=wrap;html=1;fontSize=14;align=center;" parent="1" vertex="1">
          <mxGeometry x="680" y="-710" width="110" height="30" as="geometry" />
        </mxCell>
        <mxCell id="xnaSK2mseFq4dKcTBow4-48" value="终端防护" style="rounded=1;whiteSpace=wrap;html=1;fontSize=14;align=center;" parent="1" vertex="1">
          <mxGeometry x="680" y="-640" width="110" height="30" as="geometry" />
        </mxCell>
        <mxCell id="xnaSK2mseFq4dKcTBow4-49" value="HIDS" style="rounded=1;whiteSpace=wrap;html=1;fontSize=14;align=center;" parent="1" vertex="1">
          <mxGeometry x="680" y="-570" width="110" height="30" as="geometry" />
        </mxCell>
        <mxCell id="xnaSK2mseFq4dKcTBow4-53" value="脆弱性评估" style="rounded=1;whiteSpace=wrap;html=1;fontSize=14;align=center;" parent="1" vertex="1">
          <mxGeometry x="105" y="-870" width="110" height="30" as="geometry" />
        </mxCell>
        <mxCell id="xnaSK2mseFq4dKcTBow4-58" value="风险评估" style="rounded=1;whiteSpace=wrap;html=1;fontSize=14;align=center;" parent="1" vertex="1">
          <mxGeometry x="105" y="-830" width="110" height="30" as="geometry" />
        </mxCell>
        <mxCell id="xnaSK2mseFq4dKcTBow4-63" value="网信安全技术全景图" style="rounded=1;whiteSpace=wrap;html=1;fontSize=17;align=center;fontStyle=1;fillColor=#a20025;strokeColor=#6F0000;fontColor=#ffffff;" parent="1" vertex="1">
          <mxGeometry x="31" y="-1020" width="770" height="40" as="geometry" />
        </mxCell>
        <mxCell id="xnaSK2mseFq4dKcTBow4-64" value="产品服务" style="rounded=0;whiteSpace=wrap;html=1;fontSize=14;align=left;fontStyle=1;fillColor=#d5e8d4;strokeColor=#82b366;" parent="1" vertex="1">
          <mxGeometry x="30" y="-970" width="772" height="50" as="geometry" />
        </mxCell>
        <mxCell id="xnaSK2mseFq4dKcTBow4-65" value="灵猴众测服务平台" style="rounded=1;whiteSpace=wrap;html=1;fontSize=14;align=center;" parent="1" vertex="1">
          <mxGeometry x="652" y="-960" width="125" height="30" as="geometry" />
        </mxCell>
        <mxCell id="xnaSK2mseFq4dKcTBow4-66" value="商密平台" style="rounded=1;whiteSpace=wrap;html=1;fontSize=14;align=center;" parent="1" vertex="1">
          <mxGeometry x="362" y="-960" width="110" height="30" as="geometry" />
        </mxCell>
        <mxCell id="xnaSK2mseFq4dKcTBow4-67" value="翼指纹" style="rounded=1;whiteSpace=wrap;html=1;fontSize=14;align=center;" parent="1" vertex="1">
          <mxGeometry x="242" y="-960" width="90" height="30" as="geometry" />
        </mxCell>
        <mxCell id="xnaSK2mseFq4dKcTBow4-70" value="神荼平台" style="rounded=1;whiteSpace=wrap;html=1;fontSize=14;align=center;" parent="1" vertex="1">
          <mxGeometry x="522" y="-960" width="100" height="30" as="geometry" />
        </mxCell>
        <mxCell id="xnaSK2mseFq4dKcTBow4-74" value="智能威胁运营中心" style="rounded=1;whiteSpace=wrap;html=1;fontSize=14;align=center;" parent="1" vertex="1">
          <mxGeometry x="107" y="-960" width="115" height="30" as="geometry" />
        </mxCell>
        <mxCell id="xnaSK2mseFq4dKcTBow4-79" value="" style="group" parent="1" vertex="1" connectable="0">
          <mxGeometry x="500" y="-740" width="130" height="210" as="geometry" />
        </mxCell>
        <mxCell id="xnaSK2mseFq4dKcTBow4-41" value="移动安全" style="rounded=0;whiteSpace=wrap;html=1;align=center;verticalAlign=top;fontStyle=1;fontSize=14;fillColor=#ffe6cc;strokeColor=#d79b00;" parent="xnaSK2mseFq4dKcTBow4-79" vertex="1">
          <mxGeometry width="130" height="210" as="geometry" />
        </mxCell>
        <mxCell id="xnaSK2mseFq4dKcTBow4-42" value="安全加固" style="rounded=1;whiteSpace=wrap;html=1;fontSize=14;align=center;" parent="xnaSK2mseFq4dKcTBow4-79" vertex="1">
          <mxGeometry x="10" y="30" width="110" height="30" as="geometry" />
        </mxCell>
        <mxCell id="xnaSK2mseFq4dKcTBow4-43" value="密码控件" style="rounded=1;whiteSpace=wrap;html=1;fontSize=14;align=center;" parent="xnaSK2mseFq4dKcTBow4-79" vertex="1">
          <mxGeometry x="10" y="80" width="110" height="30" as="geometry" />
        </mxCell>
        <mxCell id="xnaSK2mseFq4dKcTBow4-44" value="翼指纹" style="rounded=1;whiteSpace=wrap;html=1;fontSize=14;align=center;" parent="xnaSK2mseFq4dKcTBow4-79" vertex="1">
          <mxGeometry x="10" y="125.5" width="110" height="30" as="geometry" />
        </mxCell>
        <mxCell id="xnaSK2mseFq4dKcTBow4-45" value="环境安全检测" style="rounded=1;whiteSpace=wrap;html=1;fontSize=14;align=center;" parent="xnaSK2mseFq4dKcTBow4-79" vertex="1">
          <mxGeometry x="10" y="170" width="110" height="30" as="geometry" />
        </mxCell>
        <mxCell id="xnaSK2mseFq4dKcTBow4-80" value="" style="group" parent="1" vertex="1" connectable="0">
          <mxGeometry x="339" y="-740" width="130" height="210" as="geometry" />
        </mxCell>
        <mxCell id="xnaSK2mseFq4dKcTBow4-36" value="内容安全" style="rounded=0;whiteSpace=wrap;html=1;align=center;verticalAlign=top;fontStyle=1;fontSize=14;fillColor=#ffe6cc;strokeColor=#d79b00;" parent="xnaSK2mseFq4dKcTBow4-80" vertex="1">
          <mxGeometry width="130" height="210" as="geometry" />
        </mxCell>
        <mxCell id="xnaSK2mseFq4dKcTBow4-37" value="不良信息监控" style="rounded=1;whiteSpace=wrap;html=1;fontSize=14;align=center;" parent="xnaSK2mseFq4dKcTBow4-80" vertex="1">
          <mxGeometry x="11" y="30" width="110" height="30" as="geometry" />
        </mxCell>
        <mxCell id="xnaSK2mseFq4dKcTBow4-38" value="反钓鱼" style="rounded=1;whiteSpace=wrap;html=1;fontSize=14;align=center;" parent="xnaSK2mseFq4dKcTBow4-80" vertex="1">
          <mxGeometry x="11" y="100" width="110" height="30" as="geometry" />
        </mxCell>
        <mxCell id="xnaSK2mseFq4dKcTBow4-39" value="邮件网关" style="rounded=1;whiteSpace=wrap;html=1;fontSize=14;align=center;" parent="xnaSK2mseFq4dKcTBow4-80" vertex="1">
          <mxGeometry x="10" y="170" width="110" height="30" as="geometry" />
        </mxCell>
        <mxCell id="xnaSK2mseFq4dKcTBow4-82" value="威胁预警" style="rounded=1;whiteSpace=wrap;html=1;fontSize=14;align=center;" parent="1" vertex="1">
          <mxGeometry x="105" y="-790" width="110" height="30" as="geometry" />
        </mxCell>
        <mxCell id="xnaSK2mseFq4dKcTBow4-93" value="" style="group;fillColor=#f5f5f5;strokeColor=#666666;fontColor=#333333;fontStyle=1" parent="1" vertex="1" connectable="0">
          <mxGeometry x="620" y="-905" width="120" height="150" as="geometry" />
        </mxCell>
        <mxCell id="xnaSK2mseFq4dKcTBow4-89" value="&lt;b&gt;防御&lt;/b&gt;" style="rounded=0;whiteSpace=wrap;html=1;shadow=0;sketch=0;fontSize=14;align=center;verticalAlign=top;fillColor=#f5f5f5;strokeColor=#666666;fontColor=#333333;" parent="xnaSK2mseFq4dKcTBow4-93" vertex="1">
          <mxGeometry width="120" height="150" as="geometry" />
        </mxCell>
        <mxCell id="xnaSK2mseFq4dKcTBow4-60" value="攻击溯源" style="rounded=1;whiteSpace=wrap;html=1;fontSize=14;align=center;" parent="xnaSK2mseFq4dKcTBow4-93" vertex="1">
          <mxGeometry x="5" y="112.5" width="110" height="30" as="geometry" />
        </mxCell>
        <mxCell id="xnaSK2mseFq4dKcTBow4-86" value="SOAR" style="rounded=1;whiteSpace=wrap;html=1;fontSize=14;align=center;" parent="xnaSK2mseFq4dKcTBow4-93" vertex="1">
          <mxGeometry x="5" y="72.5" width="110" height="30" as="geometry" />
        </mxCell>
        <mxCell id="xnaSK2mseFq4dKcTBow4-92" value="联防联控" style="rounded=1;whiteSpace=wrap;html=1;fontSize=14;align=center;" parent="xnaSK2mseFq4dKcTBow4-93" vertex="1">
          <mxGeometry x="5" y="32.5" width="110" height="30" as="geometry" />
        </mxCell>
        <mxCell id="xnaSK2mseFq4dKcTBow4-94" value="" style="group;fillColor=#f5f5f5;strokeColor=#666666;fontColor=#333333;fontStyle=1" parent="1" vertex="1" connectable="0">
          <mxGeometry x="460" y="-905" width="120" height="150" as="geometry" />
        </mxCell>
        <mxCell id="xnaSK2mseFq4dKcTBow4-84" value="&lt;b&gt;监测&lt;/b&gt;" style="rounded=0;whiteSpace=wrap;html=1;shadow=0;sketch=0;fontSize=14;align=center;verticalAlign=top;fillColor=#f5f5f5;strokeColor=#666666;fontColor=#333333;" parent="xnaSK2mseFq4dKcTBow4-94" vertex="1">
          <mxGeometry width="120" height="150" as="geometry" />
        </mxCell>
        <mxCell id="xnaSK2mseFq4dKcTBow4-85" value="流量分析引擎" style="rounded=1;whiteSpace=wrap;html=1;fontSize=14;align=center;" parent="xnaSK2mseFq4dKcTBow4-94" vertex="1">
          <mxGeometry x="5" y="72.5" width="110" height="30" as="geometry" />
        </mxCell>
        <mxCell id="xnaSK2mseFq4dKcTBow4-88" value="UEBA" style="rounded=1;whiteSpace=wrap;html=1;fontSize=14;align=center;" parent="xnaSK2mseFq4dKcTBow4-94" vertex="1">
          <mxGeometry x="5" y="112.5" width="110" height="30" as="geometry" />
        </mxCell>
        <mxCell id="xnaSK2mseFq4dKcTBow4-91" value="关联分析引擎" style="rounded=1;whiteSpace=wrap;html=1;fontSize=14;align=center;" parent="xnaSK2mseFq4dKcTBow4-94" vertex="1">
          <mxGeometry x="5" y="32.5" width="110" height="30" as="geometry" />
        </mxCell>
        <mxCell id="xnaSK2mseFq4dKcTBow4-95" value="" style="group;fillColor=#f5f5f5;strokeColor=#666666;fontColor=#333333;fontStyle=0" parent="1" vertex="1" connectable="0">
          <mxGeometry x="290" y="-905" width="120" height="150" as="geometry" />
        </mxCell>
        <mxCell id="xnaSK2mseFq4dKcTBow4-81" value="响应" style="rounded=0;whiteSpace=wrap;html=1;shadow=0;sketch=0;fontSize=14;align=center;verticalAlign=top;fillColor=#f5f5f5;strokeColor=#666666;fontColor=#333333;fontStyle=1" parent="xnaSK2mseFq4dKcTBow4-95" vertex="1">
          <mxGeometry width="120" height="150" as="geometry" />
        </mxCell>
        <mxCell id="xnaSK2mseFq4dKcTBow4-56" value="异构数据检索" style="rounded=1;whiteSpace=wrap;html=1;fontSize=14;align=center;" parent="xnaSK2mseFq4dKcTBow4-95" vertex="1">
          <mxGeometry x="5" y="32.5" width="110" height="30" as="geometry" />
        </mxCell>
        <mxCell id="xnaSK2mseFq4dKcTBow4-57" value="预警响应" style="rounded=1;whiteSpace=wrap;html=1;fontSize=14;align=center;" parent="xnaSK2mseFq4dKcTBow4-95" vertex="1">
          <mxGeometry x="5" y="112.5" width="110" height="30" as="geometry" />
        </mxCell>
        <mxCell id="xnaSK2mseFq4dKcTBow4-83" value="攻击溯源" style="rounded=1;whiteSpace=wrap;html=1;fontSize=14;align=center;" parent="xnaSK2mseFq4dKcTBow4-95" vertex="1">
          <mxGeometry x="5" y="72.5" width="110" height="30" as="geometry" />
        </mxCell>
      </root>
    </mxGraphModel>
  </diagram>
</mxfile>
